<svg id="Layer_1" data-name="Layer 1" xmlns="http://www.w3.org/2000/svg" viewBox="0 0 488.96 91.33"><defs><style>.cls-1{fill:#fff;}</style></defs><title>tenfield2</title><path class="cls-1" d="M31.21,90.25,46.3,19.83H18.65L22.73.06h64C76.51,5.31,71.84,15.93,69.56,26.55L56,90.25Z" transform="translate(0 -0.01)"/><path class="cls-1" d="M77.09,90.27H59.28L65.1,63.21C71.2,62,78.16,60,83.69,58.76L77.1,90.26ZM65.73,60.19c5.86-1,12.95-2.33,18.41-3.62l5.59-26.74c2-9.94,10.55-9.94,14.93-9.94h13.7l4-19.79L103.91,0C87.25-.36,76,7.75,72.34,29.24Z" transform="translate(0 -0.01)"/><path class="cls-1" d="M102.76,51.88C82.5,58.21,58.15,62.58,37.18,63,14.35,63.54,1.06,59.27.06,52.48c-.52-3.55,2.33-7.78,9-12.38C15.89,35,26.14,30.48,38,26.48v.28C19.64,34.7,10.87,40.86,8.77,45.48c-7.22,16,64.63,14.31,94,6.06Z" transform="translate(0 -0.01)"/><path class="cls-1" d="M102.29,38A13.07,13.07,0,1,1,89.23,51h0A13.1,13.1,0,0,1,102.29,38Z" transform="translate(0 -0.01)"/><path class="cls-1" d="M176.25,66.8a61,61,0,0,0,1.47-12.32,27,27,0,0,0-1.32-8.7,15.35,15.35,0,0,0-4-6.4,18,18,0,0,0-7.3-3.9,37.23,37.23,0,0,0-10.81-1.4,38.37,38.37,0,0,0-15.51,3.17,33.79,33.79,0,0,0-12.4,9.31,32.2,32.2,0,0,0-6.82,14.29A57.18,57.18,0,0,0,118.3,72q0,10,6,14.7t19,4.68q10.47,0,18-4.21a29.72,29.72,0,0,0,8.35-6.29,22.1,22.1,0,0,0,5.1-8.78H155.81a11.08,11.08,0,0,1-4.36,5.76,12.93,12.93,0,0,1-7.3,2q-7.4,0-7.41-7.56a26.88,26.88,0,0,1,.74-5.46Zm-35.93-11a21.3,21.3,0,0,1,4.16-8.32,10.31,10.31,0,0,1,7.65-3.2q4.52,0,6.35,3.42a11.54,11.54,0,0,1,1,5.1,14,14,0,0,1-.31,3Zm70.24-20.11-.94,5.94a28.09,28.09,0,0,1,8.71-5.78,26,26,0,0,1,9.78-1.79,20.33,20.33,0,0,1,8.66,1.76A13,13,0,0,1,242.61,41a15,15,0,0,1,2,7.83,27.58,27.58,0,0,1-.52,4.72L236.56,89.7h-20.5L222.84,58a31,31,0,0,0,.42-4.09q0-6.88-6-6.89a9.75,9.75,0,0,0-5.7,1.56,10.81,10.81,0,0,0-3.39,3.71,17.1,17.1,0,0,0-1.61,4.08L206,58.7l-6.56,31H179l8.51-40.14q1.41-6.62,2.37-13.86Zm60,54H250.17l8.72-41.08H248.8l2.76-12.92h10.35q1.63-9.4,4.6-14.73a17.65,17.65,0,0,1,8.43-7.77c3.65-1.63,8.54-2.45,14.71-2.45A51.35,51.35,0,0,1,300.31,12l-2.68,12.82a22.4,22.4,0,0,0-5.42-1.16,8.15,8.15,0,0,0-5.27,1.66,10.19,10.19,0,0,0-3.13,4.28,31.37,31.37,0,0,0-1.68,6.09h12.56l-2.78,12.92H279.33L270.66,89.7Zm40.38,0,11.51-54H302.1l-11.55,54ZM324.56,26.4h-20.7l3-14.39h20.65Zm56.3,40.4H342.12a26.84,26.84,0,0,0-.74,5.46q0,7.56,7.41,7.56a12.94,12.94,0,0,0,7.3-2,11.07,11.07,0,0,0,4.36-5.76h18.91a22.1,22.1,0,0,1-5.1,8.78,29.73,29.73,0,0,1-8.35,6.29q-7.5,4.21-18,4.21-13,0-19-4.68t-6-14.7a57.18,57.18,0,0,1,1.26-11.1A32.21,32.21,0,0,1,331,46.55a33.8,33.8,0,0,1,12.4-9.31,38.38,38.38,0,0,1,15.51-3.17,37.23,37.23,0,0,1,10.79,1.41A17.94,17.94,0,0,1,377,39.42a15.31,15.31,0,0,1,4,6.4,27,27,0,0,1,1.32,8.7,61.12,61.12,0,0,1-1.47,12.29Zm-35.93-11h18.93a13.94,13.94,0,0,0,.31-3,11.53,11.53,0,0,0-1-5.1q-1.83-3.41-6.35-3.42a10.31,10.31,0,0,0-7.65,3.2,21.29,21.29,0,0,0-4.17,8.31Zm58.33,33.88H382.81L399.28,12h20.41L403.27,89.68Zm49.27,0,1.21-8h-.42a19.12,19.12,0,0,1-8.51,7.2,27.71,27.71,0,0,1-11.51,2.46q-8.77,0-13.11-5.84t-4.33-14.61a36.67,36.67,0,0,1,.89-8,45.33,45.33,0,0,1,5.55-14.11,32.87,32.87,0,0,1,10.11-10.66,25.23,25.23,0,0,1,20.28-3.21,16.59,16.59,0,0,1,5.51,2.69A12.44,12.44,0,0,1,461.93,42h.21l6.35-30H489L472.47,89.73Zm-1.16-43.81a9.88,9.88,0,0,0-8.93,4.69,39.25,39.25,0,0,0-4.73,12.09,32.27,32.27,0,0,0-.89,7.29q0,9.44,7.36,9.44a10.08,10.08,0,0,0,8.87-5,34.1,34.1,0,0,0,4.68-11.73,42.69,42.69,0,0,0,1-8q0-8.77-7.39-8.76Z" transform="translate(0 -0.01)"/></svg>